<svg width="159" height="125" viewBox="0 0 159 125" fill="none" xmlns="http://www.w3.org/2000/svg">
<path d="M81.0968 15.2336C81.0968 22.2592 75.4014 27.9546 68.3757 27.9546C61.3501 27.9546 55.6547 22.2592 55.6547 15.2336C55.6547 8.2079 61.3501 2.51248 68.3757 2.51248C75.4014 2.51248 81.0968 8.2079 81.0968 15.2336Z" fill="#EF4138"/>
<path d="M78.489 61.57C78.489 54.5444 84.1844 48.849 91.2101 48.849C98.2357 48.849 103.931 54.5444 103.931 61.57C103.931 68.5957 98.2357 74.2911 91.2101 74.2911C84.1844 74.2911 78.489 68.5957 78.489 61.57Z" fill="#C32728"/>
<path d="M53.2377 17.8731V0H39.5625L39.8805 25.6648C40.8028 34.4105 49.9938 36.0324 54.9232 36.0324H106.157C115.596 35.778 118.868 29.4174 119.324 26.269V8.61849C119.324 3.94353 114.299 0.159013 104.09 0.158982H83.482V18.0639C83.482 23.6612 78.489 30.6896 68.6301 30.6896C58.0399 30.6896 53.2377 23.4386 53.2377 17.8731Z" fill="#149B56"/>
<path d="M106.348 58.9303V76.8034H120.023L119.705 51.1387C118.783 42.3929 109.592 40.771 104.663 40.771H53.4285C43.9895 41.0254 40.718 47.386 40.2622 50.5344V68.1849C40.2622 72.8599 45.287 76.6444 55.4957 76.6444H76.1038V58.7395C76.1038 53.1422 81.0968 46.1138 90.9557 46.1138C101.546 46.1138 106.348 53.3648 106.348 58.9303Z" fill="#054B27"/>
<path d="M30.8486 98.6837V124.285H9.69982C3.08486 124.285 0 121.168 0 116.08V100.465C0 99.6378 1.30391 98.6837 2.13078 98.6837H8.65033V116.08C8.67577 118.522 11.0567 119.451 12.244 119.61H22.0074V100.751C22.0074 99.288 22.7707 98.6837 23.6294 98.6837H30.8486Z" fill="black"/>
<path fill-rule="evenodd" clip-rule="evenodd" d="M35.937 98.6202V124.062H56.8314C61.3792 124.062 66.245 121.582 66.245 117.638V105.871C66.245 104.058 63.7962 98.6202 58.7395 98.6202H35.937ZM44.333 102.118V119.61H56.1636C56.577 119.493 57.4039 118.815 57.4039 118.052V104.217C57.4039 102.977 56.6024 102.118 55.6865 102.118H44.333Z" fill="black"/>
<path d="M70.3793 98.6202H97.2208C97.2208 101.19 96.4363 101.981 96.0441 102.055H79.8883V109.179H94.8992V112.454H79.8883V119.069C79.8883 119.578 80.5244 119.621 80.8424 119.578H97.2208V124.285H77.6939C72.0204 124.285 70.4535 120.808 70.3793 119.069V98.6202Z" fill="black"/>
<path d="M108.129 98.5883H127.147C127.147 101.438 125.599 102.256 124.826 102.309H110.546C109.868 102.68 108.511 103.887 108.511 105.744C108.511 107.601 109.868 108.384 110.546 108.543H121.645C123.85 108.341 128.26 109.541 128.26 115.953C128.26 122.364 123.85 124.115 121.645 124.189H103.009C100.821 124.189 99.8922 121.115 99.7014 119.578H117.097C118.853 119.578 119.377 117.161 119.419 115.953C119.419 113.459 117.871 112.878 117.097 112.9H105.744C103.73 112.868 99.7014 111.392 99.7014 105.744C99.7014 100.096 105.32 98.6201 108.129 98.5883Z" fill="black"/>
<path d="M137.992 98.5247H158.536C158.536 101.476 157.773 102.235 157.232 102.246H143.08C141.458 102.373 140.472 104.472 140.472 105.362V116.207C140.472 118.548 142.211 119.472 143.08 119.642H158.854C158.854 122.345 157.964 123.808 157.073 123.808H137.96C133.304 123.808 130.55 118.815 130.55 115.825V106.126C130.55 100.878 135.384 98.5247 137.992 98.5247Z" fill="black"/>
</svg>
